<svg width="304" height="19" viewBox="0 0 304 19" fill="none" xmlns="http://www.w3.org/2000/svg">
<path d="M11.865 11.9516H2.5654V16.8548C2.5654 17.1817 2.62957 17.4269 2.75784 17.5903C2.84335 17.7129 3.05713 17.8151 3.39919 17.8968V18.2032H0V17.8968C0.299297 17.8151 0.51308 17.7129 0.64135 17.5903C0.726863 17.4269 0.769589 17.1817 0.769589 16.8548V6.19032C0.769589 5.82258 0.726863 5.57742 0.64135 5.45484C0.51308 5.33226 0.299297 5.23011 0 5.14839V4.84194H3.39919V5.14839C3.05713 5.23011 2.84335 5.33226 2.75784 5.45484C2.62957 5.57742 2.5654 5.82258 2.5654 6.19032V10.6645H11.865V6.19032C11.865 5.82258 11.8008 5.57742 11.6725 5.45484C11.587 5.33226 11.3732 5.23011 11.0312 5.14839V4.84194H14.4304V5.14839C14.1311 5.23011 13.9173 5.33226 13.789 5.45484C13.7035 5.61828 13.6608 5.86344 13.6608 6.19032V16.8548C13.6608 17.1817 13.7035 17.4269 13.789 17.5903C13.9173 17.7129 14.1311 17.8151 14.4304 17.8968V18.2032H11.0312V17.8968C11.3732 17.8151 11.587 17.7129 11.6725 17.5903C11.8008 17.4269 11.865 17.1817 11.865 16.8548V11.9516Z" fill="#CFC8B6"/>
<path d="M30.6566 4.53548C33.1792 4.53548 35.1887 5.14839 36.6852 6.37419C38.31 7.72258 39.1224 9.47957 39.1224 11.6452C39.1224 12.9935 38.7375 14.2194 37.9679 15.3226C36.4287 17.4473 34.013 18.5097 30.7208 18.5097C28.1981 18.5097 26.1885 17.8968 24.692 16.671C23.0672 15.3226 22.2548 13.6065 22.2548 11.5226C22.2548 10.0925 22.6397 8.82581 23.4093 7.72258C24.2644 6.53763 25.4402 5.65914 26.9367 5.08709C28.0056 4.71935 29.2456 4.53548 30.6566 4.53548ZM30.6566 5.94516C28.6043 5.94516 26.9582 6.53763 25.7182 7.72258C24.6493 8.74409 24.1148 10.0107 24.1148 11.5226C24.1148 13.0344 24.6493 14.3011 25.7182 15.3226C26.9582 16.5075 28.6257 17.1 30.7208 17.1C32.7731 17.1 34.4192 16.5075 35.6591 15.3226C36.7281 14.3011 37.2625 13.0548 37.2625 11.5839C37.2625 10.0312 36.7281 8.74409 35.6591 7.72258C34.3764 6.53763 32.7089 5.94516 30.6566 5.94516Z" fill="#CFC8B6"/>
<path d="M49.2556 6.19032V13.0548C49.2556 14.1172 49.3198 14.8527 49.4481 15.2613C49.5336 15.6699 49.7687 15.9968 50.1535 16.2419C50.8803 16.814 52.163 17.1 54.0016 17.1C56.0111 17.1 57.3794 16.7527 58.1063 16.0581C58.3629 15.8129 58.5339 15.486 58.6194 15.0774C58.7049 14.7097 58.7477 14.0355 58.7477 13.0548V6.19032C58.7477 5.86344 58.6835 5.61828 58.5552 5.45484C58.427 5.33226 58.2132 5.23011 57.9139 5.14839V4.84194H60.9924V5.14839C60.6931 5.23011 60.4793 5.33226 60.351 5.45484C60.2655 5.57742 60.2228 5.82258 60.2228 6.19032V13.4226C60.2228 14.6484 60.1159 15.5065 59.9021 15.9968C59.5173 16.8548 58.8331 17.4882 57.8497 17.8968C56.8663 18.3054 55.5196 18.5097 53.8093 18.5097C51.3722 18.5097 49.6619 18.0806 48.6785 17.2226C48.2082 16.814 47.8875 16.3441 47.7165 15.8129C47.5454 15.2817 47.4598 14.4849 47.4598 13.4226V6.19032C47.4598 5.82258 47.4171 5.57742 47.3316 5.45484C47.2033 5.33226 46.9895 5.23011 46.6902 5.14839V4.84194H50.0894V5.14839C49.7474 5.23011 49.5336 5.33226 49.4481 5.45484C49.3198 5.61828 49.2556 5.86344 49.2556 6.19032Z" fill="#CFC8B6"/>
<path d="M82.2211 5.51612L80.8743 8.15161L80.5537 7.96774C80.5964 7.76344 80.6177 7.6 80.6177 7.47742C80.6177 7.31398 80.3399 7.08925 79.7841 6.80323C78.6296 6.23118 77.2401 5.94516 75.6153 5.94516C74.2471 5.94516 73.114 6.16989 72.2161 6.61935C71.2755 7.10967 70.8052 7.78387 70.8052 8.64194C70.8052 9.00968 70.9333 9.35699 71.1899 9.68387C71.4037 9.96989 71.7031 10.1742 72.0879 10.2968C72.4727 10.4194 72.9002 10.5011 73.3706 10.5419C73.8409 10.5828 74.8242 10.6441 76.3207 10.7258C77.6034 10.7667 78.5654 10.828 79.2068 10.9097C79.8481 11.0323 80.404 11.2161 80.8743 11.4613C81.3447 11.7473 81.7295 12.1355 82.0288 12.6258C82.3281 13.1161 82.4777 13.6677 82.4777 14.2806C82.4777 15.5065 81.9433 16.4871 80.8743 17.2226C79.5916 18.0806 77.9027 18.5097 75.8076 18.5097C74.7814 18.5097 73.6912 18.3667 72.5368 18.0806C71.3824 17.7538 70.3134 17.3247 69.33 16.7936C69.2018 16.7118 69.1162 16.671 69.0734 16.671C68.9451 16.671 68.7528 16.814 68.4962 17.1L68.2398 16.9161L69.7789 14.4032L70.0996 14.5258C70.0569 14.6484 70.0354 14.7301 70.0354 14.771C69.9927 14.8935 69.9714 14.9957 69.9714 15.0774C69.9714 15.2817 70.399 15.6086 71.2541 16.0581C72.7078 16.7527 74.2043 17.1 75.7435 17.1C77.1545 17.1 78.3303 16.8753 79.271 16.4258C79.6985 16.2215 80.0619 15.9151 80.3612 15.5065C80.6178 15.1387 80.7461 14.7505 80.7461 14.3419C80.7461 13.9742 80.6392 13.6269 80.4254 13.3C80.1689 13.014 79.8695 12.8097 79.5274 12.6871C79.1854 12.5645 78.8005 12.4828 78.373 12.4419C77.9454 12.3602 77.1544 12.2989 76 12.2581C74.589 12.2172 73.6057 12.1559 73.0499 12.0742C72.4513 11.9925 71.874 11.8699 71.3181 11.7065C70.6768 11.4613 70.1423 11.0935 69.7148 10.6032C69.3299 10.0312 69.1376 9.39785 69.1376 8.70323C69.1376 7.3957 69.7362 6.3742 70.9334 5.63871C72.1734 4.90323 73.7553 4.53548 75.6793 4.53548C77.4324 4.53548 79.2068 4.90323 81.0026 5.63871C81.2591 5.76129 81.4087 5.82258 81.4515 5.82258C81.5798 5.82258 81.7294 5.67957 81.9004 5.39355L82.2211 5.51612Z" fill="#CFC8B6"/>
<path d="M92.4826 11.9516V16.9161H101.141C101.483 16.9161 101.74 16.8753 101.911 16.7936C102.039 16.671 102.146 16.4667 102.231 16.1807H102.616V19H102.231C102.146 18.6731 102.039 18.4688 101.911 18.3871C101.782 18.2645 101.526 18.2032 101.141 18.2032H89.9172V17.8968C90.2165 17.8151 90.4303 17.7129 90.5586 17.5903C90.6441 17.4269 90.687 17.1817 90.687 16.8548V6.19032C90.687 5.82258 90.6441 5.57742 90.5586 5.45484C90.4303 5.33226 90.2165 5.23011 89.9172 5.14839V4.84194H101.077C101.419 4.84194 101.675 4.78065 101.846 4.65807C101.975 4.57634 102.082 4.37204 102.167 4.04516H102.488V6.86452H102.167C102.082 6.5785 101.975 6.3742 101.846 6.25162C101.675 6.1699 101.419 6.12903 101.077 6.12903H92.4826V10.6645H97.9341C98.3189 10.6645 98.5756 10.6032 98.7038 10.4806C98.8321 10.3989 98.939 10.1946 99.0245 9.86774H99.4092V12.7484H99.0245C98.939 12.4215 98.8321 12.2172 98.7038 12.1355C98.5328 12.0129 98.2761 11.9516 97.9341 11.9516H92.4826Z" fill="#CFC8B6"/>
<path d="M129.938 4.53548C132.46 4.53548 134.47 5.14839 135.966 6.37419C137.634 7.72258 138.468 9.47957 138.468 11.6452C138.468 12.9935 138.061 14.2194 137.249 15.3226C135.71 17.4473 133.294 18.5097 130.002 18.5097C127.522 18.5097 125.512 17.8968 123.973 16.671C122.348 15.3226 121.536 13.6065 121.536 11.5226C121.536 10.0925 121.921 8.82581 122.69 7.72258C123.545 6.53763 124.743 5.65914 126.282 5.08709C127.308 4.71935 128.527 4.53548 129.938 4.53548ZM129.938 5.94516C127.928 5.94516 126.303 6.53763 125.063 7.72258C123.952 8.74409 123.396 10.0107 123.396 11.5226C123.396 13.0344 123.952 14.3011 125.063 15.3226C126.303 16.5075 127.949 17.1 130.002 17.1C132.054 17.1 133.7 16.5075 134.94 15.3226C136.009 14.3011 136.543 13.0548 136.543 11.5839C136.543 10.0312 136.009 8.74409 134.94 7.72258C133.7 6.53763 132.033 5.94516 129.938 5.94516Z" fill="#CFC8B6"/>
<path d="M148.857 11.9516V16.8548C148.857 17.1817 148.9 17.4269 148.986 17.5903C149.114 17.7129 149.328 17.8151 149.627 17.8968V18.2032H146.228V17.8968C146.57 17.8151 146.784 17.7129 146.869 17.5903C146.997 17.4269 147.062 17.1817 147.062 16.8548V6.19032C147.062 5.82258 146.997 5.57742 146.869 5.45484C146.784 5.33226 146.57 5.23011 146.228 5.14839V4.84194H157.644C157.986 4.84194 158.221 4.78065 158.349 4.65807C158.52 4.57634 158.649 4.37204 158.734 4.04516H159.055V6.86452H158.734C158.649 6.5785 158.52 6.3742 158.349 6.25162C158.221 6.1699 157.986 6.12903 157.644 6.12903H148.857V10.6645H154.565C154.907 10.6645 155.143 10.6032 155.271 10.4806C155.442 10.3989 155.57 10.1946 155.656 9.86774H155.976V12.6871H155.656C155.57 12.4011 155.442 12.1968 155.271 12.0742C155.143 11.9925 154.907 11.9516 154.565 11.9516H148.857Z" fill="#CFC8B6"/>
<path d="M191.379 5.51612L190.032 8.15161L189.711 7.96774C189.754 7.76344 189.776 7.6 189.776 7.47742C189.776 7.31398 189.498 7.08925 188.942 6.80323C187.787 6.23118 186.398 5.94516 184.773 5.94516C183.448 5.94516 182.315 6.16989 181.374 6.61935C180.433 7.10967 179.963 7.78387 179.963 8.64194C179.963 9.00968 180.091 9.35699 180.348 9.68387C180.561 9.96989 180.861 10.1742 181.246 10.2968C181.63 10.4194 182.058 10.5011 182.528 10.5419C182.999 10.5828 183.982 10.6441 185.478 10.7258C186.761 10.7667 187.723 10.828 188.365 10.9097C189.006 11.0323 189.562 11.2161 190.032 11.4613C190.502 11.7473 190.887 12.1355 191.187 12.6258C191.486 13.1161 191.635 13.6677 191.635 14.2806C191.635 15.5065 191.101 16.4871 190.032 17.2226C188.749 18.0806 187.061 18.5097 184.966 18.5097C183.939 18.5097 182.849 18.3667 181.695 18.0806C180.54 17.7538 179.493 17.3247 178.552 16.7936C178.381 16.7118 178.274 16.671 178.231 16.671C178.103 16.671 177.911 16.814 177.654 17.1L177.398 16.9161L178.937 14.4032L179.257 14.5258C179.215 14.6484 179.193 14.7301 179.193 14.771C179.151 14.8935 179.129 14.9957 179.129 15.0774C179.129 15.2817 179.557 15.6086 180.412 16.0581C181.866 16.7527 183.362 17.1 184.901 17.1C186.312 17.1 187.488 16.8753 188.429 16.4258C188.856 16.2215 189.22 15.9151 189.519 15.5065C189.776 15.1387 189.904 14.7505 189.904 14.3419C189.904 13.9742 189.797 13.6269 189.583 13.3C189.327 13.014 189.027 12.8097 188.685 12.6871C188.343 12.5645 187.958 12.4828 187.531 12.4419C187.103 12.3602 186.312 12.2989 185.158 12.2581C183.747 12.2172 182.764 12.1559 182.208 12.0742C181.609 11.9925 181.032 11.8699 180.476 11.7065C179.835 11.4613 179.3 11.0935 178.873 10.6032C178.488 10.0312 178.295 9.39785 178.295 8.70323C178.295 7.3957 178.894 6.3742 180.091 5.63871C181.331 4.90323 182.913 4.53548 184.837 4.53548C186.59 4.53548 188.365 4.90323 190.16 5.63871C190.417 5.76129 190.566 5.82258 190.609 5.82258C190.738 5.82258 190.887 5.67957 191.058 5.39355L191.379 5.51612Z" fill="#CFC8B6"/>
<path d="M209.016 14.4645H201.705L200.614 16.7323C200.486 16.9774 200.422 17.1817 200.422 17.3452C200.422 17.5903 200.636 17.7742 201.063 17.8968V18.2032H197.6V17.8968C197.942 17.8559 198.22 17.7333 198.434 17.529C198.605 17.3247 198.819 16.957 199.075 16.4258L203.693 6.74193C203.949 6.21075 204.078 5.84301 204.078 5.63871C204.078 5.35269 203.885 5.18925 203.5 5.14839V4.84194H207.541V5.14839C207.113 5.23011 206.9 5.39355 206.9 5.63871C206.9 5.80215 207.071 6.23118 207.413 6.92581L211.902 16.2419C212.201 16.8548 212.458 17.2634 212.672 17.4677C212.886 17.7129 213.163 17.8559 213.506 17.8968V18.2032H209.85V17.8968C210.235 17.8151 210.427 17.672 210.427 17.4677C210.427 17.386 210.32 17.1409 210.106 16.7323L209.016 14.4645ZM208.439 13.1161L205.36 6.55807L202.282 13.1161H208.439Z" fill="#CFC8B6"/>
<path d="M228.321 18.2032L222.356 6.92581V16.8548C222.356 17.1817 222.42 17.4269 222.548 17.5903C222.634 17.7129 222.826 17.8151 223.126 17.8968V18.2032H220.047V17.8968C220.389 17.8151 220.603 17.7129 220.689 17.5903C220.817 17.4269 220.881 17.1817 220.881 16.8548V6.19032C220.881 5.82258 220.817 5.57742 220.689 5.45484C220.603 5.33226 220.389 5.23011 220.047 5.14839V4.84194H224.344V5.14839C223.917 5.27097 223.703 5.43441 223.703 5.63871C223.703 5.76129 223.81 6.02688 224.024 6.43548L228.449 14.9548L232.938 6.43548C233.109 6.02688 233.195 5.76129 233.195 5.63871C233.195 5.43441 233.002 5.27097 232.618 5.14839V4.84194H236.915V5.14839C236.573 5.23011 236.359 5.33226 236.273 5.45484C236.145 5.61828 236.081 5.86344 236.081 6.19032V16.8548C236.081 17.1817 236.145 17.4269 236.273 17.5903C236.359 17.7129 236.573 17.8151 236.915 17.8968V18.2032H233.516V17.8968C233.815 17.8151 234.029 17.7129 234.157 17.5903C234.242 17.4269 234.285 17.1817 234.285 16.8548V6.92581L228.321 18.2032Z" fill="#CFC8B6"/>
<path d="M247.369 6.19032V13.0548C247.369 14.1172 247.412 14.8527 247.497 15.2613C247.625 15.6699 247.86 15.9968 248.203 16.2419C248.972 16.814 250.255 17.1 252.051 17.1C254.06 17.1 255.428 16.7527 256.155 16.0581C256.412 15.8129 256.583 15.486 256.668 15.0774C256.754 14.7097 256.797 14.0355 256.797 13.0548V6.19032C256.797 5.86344 256.733 5.61828 256.604 5.45484C256.519 5.33226 256.326 5.23011 256.027 5.14839V4.84194H259.105V5.14839C258.763 5.23011 258.55 5.33226 258.464 5.45484C258.336 5.57742 258.272 5.82258 258.272 6.19032V13.4226C258.272 14.6484 258.165 15.5065 257.951 15.9968C257.609 16.8548 256.946 17.4882 255.963 17.8968C254.98 18.3054 253.633 18.5097 251.922 18.5097C249.442 18.5097 247.711 18.0806 246.727 17.2226C246.257 16.814 245.936 16.3441 245.765 15.8129C245.637 15.2817 245.573 14.4849 245.573 13.4226V6.19032C245.573 5.82258 245.509 5.57742 245.381 5.45484C245.295 5.33226 245.081 5.23011 244.739 5.14839V4.84194H248.138V5.14839C247.839 5.23011 247.625 5.33226 247.497 5.45484C247.412 5.61828 247.369 5.86344 247.369 6.19032Z" fill="#CFC8B6"/>
<path d="M278.795 11.9516H269.56V16.8548C269.56 17.1817 269.602 17.4269 269.688 17.5903C269.816 17.7129 270.03 17.8151 270.329 17.8968V18.2032H266.994V17.8968C267.293 17.8151 267.486 17.7129 267.571 17.5903C267.7 17.4269 267.764 17.1817 267.764 16.8548V6.19032C267.764 5.82258 267.7 5.57742 267.571 5.45484C267.486 5.33226 267.293 5.23011 266.994 5.14839V4.84194H270.329V5.14839C270.03 5.23011 269.816 5.33226 269.688 5.45484C269.602 5.57742 269.56 5.82258 269.56 6.19032V10.6645H278.795V6.19032C278.795 5.82258 278.752 5.57742 278.667 5.45484C278.538 5.33226 278.325 5.23011 278.025 5.14839V4.84194H281.424V5.14839C281.082 5.23011 280.869 5.33226 280.783 5.45484C280.655 5.61828 280.591 5.86344 280.591 6.19032V16.8548C280.591 17.1817 280.655 17.4269 280.783 17.5903C280.869 17.7129 281.082 17.8151 281.424 17.8968V18.2032H278.025V17.8968C278.325 17.8151 278.538 17.7129 278.667 17.5903C278.752 17.4269 278.795 17.1817 278.795 16.8548V11.9516Z" fill="#CFC8B6"/>
<path d="M299.511 14.4645H292.135L291.109 16.7323C290.981 16.9774 290.917 17.1817 290.917 17.3452C290.917 17.5903 291.13 17.7742 291.558 17.8968V18.2032H288.094V17.8968C288.437 17.8559 288.693 17.7333 288.864 17.529C289.078 17.3247 289.313 16.957 289.57 16.4258L294.187 6.74193C294.444 6.21075 294.572 5.84301 294.572 5.63871C294.572 5.35269 294.38 5.18925 293.995 5.14839V4.84194H298.035V5.14839C297.608 5.23011 297.394 5.39355 297.394 5.63871C297.394 5.80215 297.565 6.23118 297.907 6.92581L302.397 16.2419C302.696 16.8548 302.952 17.2634 303.166 17.4677C303.38 17.7129 303.658 17.8559 304 17.8968V18.2032H300.344V17.8968C300.729 17.8151 300.921 17.672 300.921 17.4677C300.921 17.386 300.815 17.1409 300.601 16.7323L299.511 14.4645ZM298.933 13.1161L295.855 6.55807L292.776 13.1161H298.933Z" fill="#CFC8B6"/>
<path d="M254.359 0V3.06415H254.038C253.995 2.77817 253.931 2.57389 253.846 2.45132C253.718 2.32876 253.568 2.26748 253.397 2.26748H250.191C250.02 2.26748 249.891 2.32876 249.806 2.45132C249.72 2.57389 249.635 2.77817 249.549 3.06415H249.293V0H249.549C249.635 0.285988 249.72 0.469842 249.806 0.551553C249.891 0.674119 250.041 0.735404 250.255 0.735404H253.461C253.675 0.735404 253.824 0.674119 253.91 0.551553C253.996 0.469842 254.06 0.285988 254.102 0H254.359Z" fill="#CFC8B6"/>
</svg>
